<svg width="573" height="543" viewBox="0 0 573 543" fill="none" xmlns="http://www.w3.org/2000/svg">
<rect y="1" width="573" height="541" rx="24" fill="white"/>
<path d="M0 42.6337C22.0385 42.6337 22.0385 33.3483 44.0769 33.3483C66.1154 33.3483 66.1154 56.1399 88.1538 56.1399C110.192 56.1399 110.192 40.1013 132.231 40.1013C154.269 40.1013 154.269 58.6723 176.308 58.6723C198.346 58.6723 198.346 60.3606 220.385 60.3606C242.423 60.3606 242.423 54.4516 264.462 54.4516C286.5 54.4516 286.5 46.0103 308.538 46.0103C330.577 46.0103 330.577 37.5689 352.615 37.5689C374.654 37.5689 374.654 41.7896 396.692 41.7896C418.731 41.7896 418.731 64.5812 440.769 64.5812C462.808 64.5812 462.808 52.7634 484.846 52.7634C506.885 52.7634 506.885 38.4131 528.923 38.4131C550.962 38.4131 550.962 50.231 573 50.231M573 50.231V50.231Z" stroke="#C9C9C9" stroke-width="0.2"/>
<path d="M0 87.1922C22.0385 87.1922 22.0385 89.001 44.0769 89.001C66.1154 89.001 66.1154 71.8169 88.1538 71.8169C110.192 71.8169 110.192 98.0453 132.231 98.0453C154.269 98.0453 154.269 82.67 176.308 82.67C198.346 82.67 198.346 93.5232 220.385 93.5232C242.423 93.5232 242.423 78.1479 264.462 78.1479C286.5 78.1479 286.5 64.5814 308.538 64.5814C330.577 64.5814 330.577 70.008 352.615 70.008C374.654 70.008 374.654 73.6257 396.692 73.6257C418.731 73.6257 418.731 74.5301 440.769 74.5301C462.808 74.5301 462.808 69.1036 484.846 69.1036C506.885 69.1036 506.885 91.7143 528.923 91.7143C550.962 91.7143 550.962 85.3833 573 85.3833M573 85.3833V85.3833Z" stroke="#C9C9C9" stroke-width="0.2"/>
<path d="M0 98.0465C22.0385 98.0465 22.0385 124.094 44.0769 124.094C66.1154 124.094 66.1154 128.164 88.1538 128.164C110.192 128.164 110.192 122.466 132.231 122.466C154.269 122.466 154.269 102.93 176.308 102.93C198.346 102.93 198.346 116.768 220.385 116.768C242.423 116.768 242.423 107 264.462 107C286.5 107 286.5 110.256 308.538 110.256C330.577 110.256 330.577 118.396 352.615 118.396C374.654 118.396 374.654 106.186 396.692 106.186C418.731 106.186 418.731 114.326 440.769 114.326C462.808 114.326 462.808 102.116 484.846 102.116C506.885 102.116 506.885 104.558 528.923 104.558C550.962 104.558 550.962 120.024 573 120.024M573 120.024V120.024Z" stroke="#C9C9C9" stroke-width="0.2"/>
<path d="M0 141.73C22.0385 141.73 22.0385 132.685 44.0769 132.685C66.1154 132.685 66.1154 157.105 88.1538 157.105C110.192 157.105 110.192 135.399 132.231 135.399C154.269 135.399 154.269 133.59 176.308 133.59C198.346 133.59 198.346 155.296 220.385 155.296C242.423 155.296 242.423 137.208 264.462 137.208C286.5 137.208 286.5 152.583 308.538 152.583C330.577 152.583 330.577 148.965 352.615 148.965C374.654 148.965 374.654 161.627 396.692 161.627C418.731 161.627 418.731 146.252 440.769 146.252C462.808 146.252 462.808 138.112 484.846 138.112C506.885 138.112 506.885 128.163 528.923 128.163C550.962 128.163 550.962 150.774 573 150.774M573 150.774V150.774Z" stroke="#C9C9C9" stroke-width="0.2"/>
<path d="M0 170.58C22.0385 170.58 22.0385 177.906 44.0769 177.906C66.1154 177.906 66.1154 168.138 88.1538 168.138C110.192 168.138 110.192 187.674 132.231 187.674C154.269 187.674 154.269 181.976 176.308 181.976C198.346 181.976 198.346 180.348 220.385 180.348C242.423 180.348 242.423 173.836 264.462 173.836C286.5 173.836 286.5 161.626 308.538 161.626C330.577 161.626 330.577 186.046 352.615 186.046C374.654 186.046 374.654 183.604 396.692 183.604C418.731 183.604 418.731 166.51 440.769 166.51C462.808 166.51 462.808 191.744 484.846 191.744C506.885 191.744 506.885 165.696 528.923 165.696C550.962 165.696 550.962 169.766 573 169.766M573 169.766V169.766Z" stroke="#C9C9C9" stroke-width="0.2"/>
<path d="M0 196.99C22.0385 196.99 22.0385 211.853 44.0769 211.853C66.1154 211.853 66.1154 215.35 88.1538 215.35C110.192 215.35 110.192 196.116 132.231 196.116C154.269 196.116 154.269 213.601 176.308 213.601C198.346 213.601 198.346 224.093 220.385 224.093C242.423 224.093 242.423 198.739 264.462 198.739C286.5 198.739 286.5 191.744 308.538 191.744C330.577 191.744 330.577 201.361 352.615 201.361C374.654 201.361 374.654 209.23 396.692 209.23C418.731 209.23 418.731 217.973 440.769 217.973C462.808 217.973 462.808 204.858 484.846 204.858C506.885 204.858 506.885 219.721 528.923 219.721C550.962 219.721 550.962 200.487 573 200.487M573 200.487V200.487Z" stroke="#C9C9C9" stroke-width="0.2"/>
<path d="M0 228.313C22.0385 228.313 22.0385 236.754 44.0769 236.754C66.1154 236.754 66.1154 232.533 88.1538 232.533C110.192 232.533 110.192 224.092 132.231 224.092C154.269 224.092 154.269 243.507 176.308 243.507C198.346 243.507 198.346 245.195 220.385 245.195C242.423 245.195 242.423 246.884 264.462 246.884C286.5 246.884 286.5 229.157 308.538 229.157C330.577 229.157 330.577 233.378 352.615 233.378C374.654 233.378 374.654 240.975 396.692 240.975C418.731 240.975 418.731 251.104 440.769 251.104C462.808 251.104 462.808 255.325 484.846 255.325C506.885 255.325 506.885 230.845 528.923 230.845C550.962 230.845 550.962 249.416 573 249.416M573 249.416V249.416Z" stroke="#C9C9C9" stroke-width="0.2"/>
<path d="M0 278.931C22.0385 278.931 22.0385 287.674 44.0769 287.674C66.1154 287.674 66.1154 268.44 88.1538 268.44C110.192 268.44 110.192 283.303 132.231 283.303C154.269 283.303 154.269 255.326 176.308 255.326C198.346 255.326 198.346 281.554 220.385 281.554C242.423 281.554 242.423 264.943 264.462 264.943C286.5 264.943 286.5 277.183 308.538 277.183C330.577 277.183 330.577 272.811 352.615 272.811C374.654 272.811 374.654 260.571 396.692 260.571C418.731 260.571 418.731 264.069 440.769 264.069C462.808 264.069 462.808 275.434 484.846 275.434C506.885 275.434 506.885 262.32 528.923 262.32C550.962 262.32 550.962 259.697 573 259.697M573 259.697V259.697Z" stroke="#C9C9C9" stroke-width="0.2"/>
<path d="M0 294.427C22.0385 294.427 22.0385 296.959 44.0769 296.959C66.1154 296.959 66.1154 296.115 88.1538 296.115C110.192 296.115 110.192 291.894 132.231 291.894C154.269 291.894 154.269 312.997 176.308 312.997C198.346 312.997 198.346 292.738 220.385 292.738C242.423 292.738 242.423 308.777 264.462 308.777C286.5 308.777 286.5 300.335 308.538 300.335C330.577 300.335 330.577 307.089 352.615 307.089C374.654 307.089 374.654 304.556 396.692 304.556C418.731 304.556 418.731 287.673 440.769 287.673C462.808 287.673 462.808 310.465 484.846 310.465C506.885 310.465 506.885 318.906 528.923 318.906C550.962 318.906 550.962 314.686 573 314.686M573 314.686V314.686Z" stroke="#C9C9C9" stroke-width="0.2"/>
<path d="M0 323.279C22.0385 323.279 22.0385 345.136 44.0769 345.136C66.1154 345.136 66.1154 327.65 88.1538 327.65C110.192 327.65 110.192 336.393 132.231 336.393C154.269 336.393 154.269 332.021 176.308 332.021C198.346 332.021 198.346 328.524 220.385 328.524C242.423 328.524 242.423 346.884 264.462 346.884C286.5 346.884 286.5 340.764 308.538 340.764C330.577 340.764 330.577 318.907 352.615 318.907C374.654 318.907 374.654 339.016 396.692 339.016C418.731 339.016 418.731 324.153 440.769 324.153C462.808 324.153 462.808 342.513 484.846 342.513C506.885 342.513 506.885 351.256 528.923 351.256C550.962 351.256 550.962 325.901 573 325.901M573 325.901V325.901Z" stroke="#C9C9C9" stroke-width="0.2"/>
<path d="M0 371.605C22.0385 371.605 22.0385 359.396 44.0769 359.396C66.1154 359.396 66.1154 357.768 88.1538 357.768C110.192 357.768 110.192 363.466 132.231 363.466C154.269 363.466 154.269 356.14 176.308 356.14C198.346 356.14 198.346 351.256 220.385 351.256C242.423 351.256 242.423 355.326 264.462 355.326C286.5 355.326 286.5 360.21 308.538 360.21C330.577 360.21 330.577 373.233 352.615 373.233C374.654 373.233 374.654 369.977 396.692 369.977C418.731 369.977 418.731 367.535 440.769 367.535C462.808 367.535 462.808 381.373 484.846 381.373C506.885 381.373 506.885 375.675 528.923 375.675C550.962 375.675 550.962 377.303 573 377.303M573 377.303V377.303Z" stroke="#C9C9C9" stroke-width="0.2"/>
<path d="M0 391.321C22.0385 391.321 22.0385 390.417 44.0769 390.417C66.1154 390.417 66.1154 402.174 88.1538 402.174C110.192 402.174 110.192 408.505 132.231 408.505C154.269 408.505 154.269 414.836 176.308 414.836C198.346 414.836 198.346 386.799 220.385 386.799C242.423 386.799 242.423 403.983 264.462 403.983C286.5 403.983 286.5 388.608 308.538 388.608C330.577 388.608 330.577 399.461 352.615 399.461C374.654 399.461 374.654 405.792 396.692 405.792C418.731 405.792 418.731 394.939 440.769 394.939C462.808 394.939 462.808 410.314 484.846 410.314C506.885 410.314 506.885 385.894 528.923 385.894C550.962 385.894 550.962 381.372 573 381.372M573 381.372V381.372Z" stroke="#C9C9C9" stroke-width="0.2"/>
<path d="M0 436.814C22.0385 436.814 22.0385 419.721 44.0769 419.721C66.1154 419.721 66.1154 431.117 88.1538 431.117C110.192 431.117 110.192 427.047 132.231 427.047C154.269 427.047 154.269 418.907 176.308 418.907C198.346 418.907 198.346 440.884 220.385 440.884C242.423 440.884 242.423 433.559 264.462 433.559C286.5 433.559 286.5 421.349 308.538 421.349C330.577 421.349 330.577 422.977 352.615 422.977C374.654 422.977 374.654 414.837 396.692 414.837C418.731 414.837 418.731 435.187 440.769 435.187C462.808 435.187 462.808 439.256 484.846 439.256C506.885 439.256 506.885 444.954 528.923 444.954C550.962 444.954 550.962 423.791 573 423.791M573 423.791V423.791Z" stroke="#C9C9C9" stroke-width="0.2"/>
<path d="M0 454.902C22.0385 454.902 22.0385 472.087 44.0769 472.087C66.1154 472.087 66.1154 473.895 88.1538 473.895C110.192 473.895 110.192 452.189 132.231 452.189C154.269 452.189 154.269 453.998 176.308 453.998C198.346 453.998 198.346 450.38 220.385 450.38C242.423 450.38 242.423 458.52 264.462 458.52C286.5 458.52 286.5 449.476 308.538 449.476C330.577 449.476 330.577 465.755 352.615 465.755C374.654 465.755 374.654 444.954 396.692 444.954C418.731 444.954 418.731 478.418 440.769 478.418C462.808 478.418 462.808 467.564 484.846 467.564C506.885 467.564 506.885 463.042 528.923 463.042C550.962 463.042 550.962 469.373 573 469.373M573 469.373V469.373Z" stroke="#C9C9C9" stroke-width="0.2"/>
<path d="M0 486.86C22.0385 486.86 22.0385 503.742 44.0769 503.742C66.1154 503.742 66.1154 482.639 88.1538 482.639C110.192 482.639 110.192 491.08 132.231 491.08C154.269 491.08 154.269 483.483 176.308 483.483C198.346 483.483 198.346 495.301 220.385 495.301C242.423 495.301 242.423 497.834 264.462 497.834C286.5 497.834 286.5 487.704 308.538 487.704C330.577 487.704 330.577 478.418 352.615 478.418C374.654 478.418 374.654 505.431 396.692 505.431C418.731 505.431 418.731 499.522 440.769 499.522C462.808 499.522 462.808 485.172 484.846 485.172C506.885 485.172 506.885 509.651 528.923 509.651C550.962 509.651 550.962 501.21 573 501.21M573 501.21V501.21Z" stroke="#C9C9C9" stroke-width="0.2"/>
<path d="M0 516.646C22.0385 516.646 22.0385 535.88 44.0769 535.88C66.1154 535.88 66.1154 514.897 88.1538 514.897C110.192 514.897 110.192 514.023 132.231 514.023C154.269 514.023 154.269 522.766 176.308 522.766C198.346 522.766 198.346 542 220.385 542C242.423 542 242.423 509.651 264.462 509.651C286.5 509.651 286.5 527.137 308.538 527.137C330.577 527.137 330.577 537.628 352.615 537.628C374.654 537.628 374.654 531.508 396.692 531.508C418.731 531.508 418.731 519.269 440.769 519.269C462.808 519.269 462.808 529.76 484.846 529.76C506.885 529.76 506.885 533.257 528.923 533.257C550.962 533.257 550.962 518.394 573 518.394M573 518.394V518.394Z" stroke="#C9C9C9" stroke-width="0.2"/>
<path d="M0 33.3484C22.0385 33.3484 22.0385 5.37141 44.0769 5.37141C66.1154 5.37141 66.1154 1 88.1538 1C110.192 1 110.192 14.1142 132.231 14.1142C154.269 14.1142 154.269 28.977 176.308 28.977C198.346 28.977 198.346 18.4856 220.385 18.4856C242.423 18.4856 242.423 22.8571 264.462 22.8571C286.5 22.8571 286.5 7.99426 308.538 7.99426C330.577 7.99426 330.577 21.1085 352.615 21.1085C374.654 21.1085 374.654 24.6056 396.692 24.6056C418.731 24.6056 418.731 10.6171 440.769 10.6171C462.808 10.6171 462.808 6.24569 484.846 6.24569C506.885 6.24569 506.885 27.2285 528.923 27.2285C550.962 27.2285 550.962 9.74282 573 9.74282M573 9.74282V9.74282Z" stroke="#C9C9C9" stroke-width="0.2"/>
</svg>
