<svg width="197" height="178" viewBox="0 0 197 178" fill="none" xmlns="http://www.w3.org/2000/svg">
<g filter="url(#filter0_d_138_561)">
<path d="M4 10.6249C4 6.96607 6.96607 4 10.6249 4H185.771C189.43 4 192.396 6.96607 192.396 10.6249V41.6792H4V10.6249Z" fill="white"/>
<path d="M3.99997 53.6868H192.396V166.31C192.396 169.969 189.43 172.935 185.771 172.935H10.6249C6.96604 172.935 3.99997 169.969 3.99997 166.31V53.6868Z" fill="white"/>
<rect x="95.5063" y="16.4219" width="82.3973" height="8.28114" rx="4.14057" fill="#F1F1F1"/>
<rect x="14.7654" y="109.17" width="60.4523" height="8.28114" rx="4.14057" fill="#F1F1F1"/>
<rect x="117.452" y="109.17" width="60.4523" height="8.28114" rx="4.14057" fill="#F1F1F1"/>
<rect x="14.7654" y="123.662" width="50.5149" height="8.28114" rx="4.14057" fill="#F1F1F1"/>
<rect x="131.529" y="123.662" width="46.3744" height="8.28114" rx="4.14057" fill="#F1F1F1"/>
<rect x="14.7654" y="136.912" width="33.1245" height="8.28114" rx="4.14057" fill="#F1F1F1"/>
<rect x="148.092" y="136.912" width="29.8121" height="8.28114" rx="4.14057" fill="#F1F1F1"/>
<circle cx="17.8708" cy="20.3552" r="3.10543" fill="#F1F1F1"/>
<circle cx="27.3942" cy="20.3552" r="3.10543" fill="#F1F1F1"/>
<circle cx="36.9174" cy="20.3552" r="3.10543" fill="#F1F1F1"/>
<path d="M34.3346 97.593H31.0884L32.0928 92.3235H28.8467L29.4435 89.1647H32.7042L33.5485 84.7395H30.1859L30.7973 81.6098H34.1453L35.1206 76.5877H38.3522L37.3915 81.6098H41.2199L42.1952 76.5877H45.4413L44.4806 81.6098H47.8868L47.29 84.7395H43.8838L43.0249 89.1647H46.5331L45.9362 92.3235H42.4281L41.4237 97.593H38.163L39.1674 92.3235H35.3244L34.3346 97.593ZM35.7175 89.3394H39.9098L40.8268 84.5648H36.6491L35.7175 89.3394Z" fill="black"/>
<path d="M134.463 98.007H131.217L132.222 92.7374H128.976L129.572 89.5786H132.833L133.677 85.1534H130.315L130.926 82.0237H134.274L135.249 77.0017H138.481L137.52 82.0237H141.349L142.324 77.0017H145.57L144.609 82.0237H148.016L147.419 85.1534H144.013L143.154 89.5786H146.662L146.065 92.7374H142.557L141.553 98.007H138.292L139.296 92.7374H135.453L134.463 98.007ZM135.846 89.7533H140.039L140.956 84.9787H136.778L135.846 89.7533ZM157.317 98.3709C152.557 98.3709 149.442 95.8671 149.151 92.2425L149.137 92.0533H153.329L153.358 92.2134C153.547 93.7127 155.032 94.8336 157.303 94.8336C159.559 94.8336 161.015 93.6254 161.015 91.9077V91.8786C161.015 89.8698 159.515 88.7635 156.983 88.7635H154.581V85.6338H156.924C159.122 85.6338 160.549 84.4692 160.549 82.7661V82.737C160.549 81.0339 159.341 80.0149 157.274 80.0149C155.221 80.0149 153.824 81.0775 153.649 82.7079L153.635 82.8389H149.602L149.617 82.6642C149.908 79.025 152.863 76.6377 157.274 76.6377C161.801 76.6377 164.712 78.8504 164.712 82.1547V82.1838C164.712 84.804 162.791 86.5072 160.331 87.0167V87.104C163.446 87.3951 165.484 89.2002 165.484 92.0533V92.0824C165.484 95.838 162.223 98.3709 157.317 98.3709Z" fill="black"/>
<path d="M108.549 53.8939L121.592 53.8938L92.6081 173.142L81.0146 173.142L108.549 53.8939Z" fill="#FEEBFF"/>
</g>
<defs>
<filter id="filter0_d_138_561" x="-3.05176e-05" y="0" width="196.396" height="180" filterUnits="userSpaceOnUse" color-interpolation-filters="sRGB">
<feFlood flood-opacity="0" result="BackgroundImageFix"/>
<feColorMatrix in="SourceAlpha" type="matrix" values="0 0 0 0 0 0 0 0 0 0 0 0 0 0 0 0 0 0 127 0" result="hardAlpha"/>
<feOffset/>
<feGaussianBlur stdDeviation="2"/>
<feComposite in2="hardAlpha" operator="out"/>
<feColorMatrix type="matrix" values="0 0 0 0 0 0 0 0 0 0 0 0 0 0 0 0 0 0 0.15 0"/>
<feBlend mode="normal" in2="BackgroundImageFix" result="effect1_dropShadow_138_561"/>
<feBlend mode="normal" in="SourceGraphic" in2="effect1_dropShadow_138_561" result="shape"/>
</filter>
</defs>
</svg>
